<mxfile host="app.diagrams.net" modified="2024-06-03T01:16:38.304Z" agent="Mozilla/5.0 (Windows NT 10.0; Win64; x64) AppleWebKit/537.36 (KHTML, like Gecko) Chrome/125.0.0.0 Safari/537.36" etag="CtK5A4x6ls9BrGUVP-0D" version="24.4.13" type="device">
  <diagram name="Page-1" id="wElS-hzYDoLo02WZ00bh">
    <mxGraphModel dx="644" dy="1615" grid="1" gridSize="10" guides="1" tooltips="1" connect="1" arrows="1" fold="1" page="1" pageScale="1" pageWidth="850" pageHeight="1100" math="0" shadow="0">
      <root>
        <mxCell id="0" />
        <mxCell id="1" parent="0" />
        <mxCell id="7j4U_wywj907edniJbTX-1" value="Tourist" style="shape=umlActor;verticalLabelPosition=bottom;verticalAlign=top;html=1;outlineConnect=0;" parent="1" vertex="1">
          <mxGeometry x="10" y="100" width="30" height="60" as="geometry" />
        </mxCell>
        <mxCell id="7j4U_wywj907edniJbTX-2" value="System" style="shape=umlActor;verticalLabelPosition=bottom;verticalAlign=top;html=1;outlineConnect=0;" parent="1" vertex="1">
          <mxGeometry x="700" y="167" width="30" height="60" as="geometry" />
        </mxCell>
        <mxCell id="7j4U_wywj907edniJbTX-6" value="" style="swimlane;startSize=0;" parent="1" vertex="1">
          <mxGeometry x="70" y="-21" width="610" height="430" as="geometry" />
        </mxCell>
        <mxCell id="7j4U_wywj907edniJbTX-45" value="&lt;b&gt;Complex tour request&lt;/b&gt;" style="text;html=1;align=center;verticalAlign=middle;whiteSpace=wrap;rounded=0;" parent="7j4U_wywj907edniJbTX-6" vertex="1">
          <mxGeometry x="-13" y="-5" width="190" height="30" as="geometry" />
        </mxCell>
        <mxCell id="7j4U_wywj907edniJbTX-31" value="Accepting complex tour request" style="ellipse;whiteSpace=wrap;html=1;" parent="7j4U_wywj907edniJbTX-6" vertex="1">
          <mxGeometry x="220" y="261" width="120" height="80" as="geometry" />
        </mxCell>
        <mxCell id="7j4U_wywj907edniJbTX-46" value="Looking at complex tour requests" style="ellipse;whiteSpace=wrap;html=1;" parent="7j4U_wywj907edniJbTX-6" vertex="1">
          <mxGeometry x="30" y="251" width="120" height="80" as="geometry" />
        </mxCell>
        <mxCell id="7j4U_wywj907edniJbTX-42" value="&amp;lt;&amp;lt;include&amp;gt;&amp;gt;" style="text;html=1;align=center;verticalAlign=middle;whiteSpace=wrap;rounded=0;rotation=-15;" parent="7j4U_wywj907edniJbTX-6" vertex="1">
          <mxGeometry x="340" y="261" width="60" height="30" as="geometry" />
        </mxCell>
        <mxCell id="7j4U_wywj907edniJbTX-47" value="" style="endArrow=classic;html=1;rounded=0;exitX=0.037;exitY=0.673;exitDx=0;exitDy=0;exitPerimeter=0;dashed=1;dashPattern=1 2;endFill=1;" parent="7j4U_wywj907edniJbTX-6" source="7j4U_wywj907edniJbTX-31" target="7j4U_wywj907edniJbTX-46" edge="1">
          <mxGeometry width="50" height="50" relative="1" as="geometry">
            <mxPoint x="250" y="341" as="sourcePoint" />
            <mxPoint x="40" y="398.47368421052624" as="targetPoint" />
          </mxGeometry>
        </mxCell>
        <mxCell id="7j4U_wywj907edniJbTX-48" value="&amp;lt;&amp;lt;extends&amp;gt;&amp;gt;" style="text;html=1;align=center;verticalAlign=middle;whiteSpace=wrap;rounded=0;rotation=10;" parent="7j4U_wywj907edniJbTX-6" vertex="1">
          <mxGeometry x="155" y="286" width="60" height="30" as="geometry" />
        </mxCell>
        <mxCell id="7j4U_wywj907edniJbTX-49" value="Validation checking" style="ellipse;whiteSpace=wrap;html=1;" parent="7j4U_wywj907edniJbTX-6" vertex="1">
          <mxGeometry x="440" y="291" width="120" height="80" as="geometry" />
        </mxCell>
        <mxCell id="7j4U_wywj907edniJbTX-50" value="" style="endArrow=none;html=1;rounded=0;" parent="7j4U_wywj907edniJbTX-6" edge="1">
          <mxGeometry width="50" height="50" relative="1" as="geometry">
            <mxPoint x="540" y="301" as="sourcePoint" />
            <mxPoint x="630" y="211" as="targetPoint" />
          </mxGeometry>
        </mxCell>
        <mxCell id="7j4U_wywj907edniJbTX-51" value="Looking at my complex tour requests" style="ellipse;whiteSpace=wrap;html=1;rotation=-15;" parent="7j4U_wywj907edniJbTX-6" vertex="1">
          <mxGeometry x="18" y="74" width="120" height="80" as="geometry" />
        </mxCell>
        <mxCell id="7j4U_wywj907edniJbTX-16" value="" style="ellipse;whiteSpace=wrap;html=1;" parent="7j4U_wywj907edniJbTX-6" vertex="1">
          <mxGeometry x="207" y="74" width="120" height="80" as="geometry" />
        </mxCell>
        <mxCell id="7j4U_wywj907edniJbTX-35" value="&amp;lt;&amp;lt;include&amp;gt;&amp;gt;" style="text;html=1;align=center;verticalAlign=middle;whiteSpace=wrap;rounded=0;rotation=15;" parent="7j4U_wywj907edniJbTX-6" vertex="1">
          <mxGeometry x="330" y="91" width="60" height="30" as="geometry" />
        </mxCell>
        <mxCell id="7j4U_wywj907edniJbTX-17" value="Creating complex tour request" style="text;html=1;align=center;verticalAlign=middle;whiteSpace=wrap;rounded=0;" parent="7j4U_wywj907edniJbTX-6" vertex="1">
          <mxGeometry x="230" y="96" width="60" height="25" as="geometry" />
        </mxCell>
        <mxCell id="7j4U_wywj907edniJbTX-53" value="&amp;lt;&amp;lt;extends&amp;gt;&amp;gt;" style="text;html=1;align=center;verticalAlign=middle;whiteSpace=wrap;rounded=0;rotation=10;" parent="7j4U_wywj907edniJbTX-6" vertex="1">
          <mxGeometry x="147" y="86" width="60" height="30" as="geometry" />
        </mxCell>
        <mxCell id="7j4U_wywj907edniJbTX-54" value="" style="endArrow=classic;html=1;rounded=0;dashed=1;dashPattern=1 2;endFill=1;exitX=0.906;exitY=0.695;exitDx=0;exitDy=0;exitPerimeter=0;" parent="7j4U_wywj907edniJbTX-6" source="7j4U_wywj907edniJbTX-53" edge="1">
          <mxGeometry width="50" height="50" relative="1" as="geometry">
            <mxPoint x="200" y="111" as="sourcePoint" />
            <mxPoint x="131" y="104" as="targetPoint" />
          </mxGeometry>
        </mxCell>
        <mxCell id="7j4U_wywj907edniJbTX-10" value="" style="endArrow=none;html=1;rounded=0;exitX=1;exitY=0.3333333333333333;exitDx=0;exitDy=0;exitPerimeter=0;" parent="1" source="7j4U_wywj907edniJbTX-1" edge="1">
          <mxGeometry width="50" height="50" relative="1" as="geometry">
            <mxPoint x="32" y="129.5" as="sourcePoint" />
            <mxPoint x="90" y="110" as="targetPoint" />
          </mxGeometry>
        </mxCell>
        <mxCell id="7j4U_wywj907edniJbTX-15" value="" style="endArrow=classicThin;html=1;rounded=0;dashed=1;dashPattern=1 4;endFill=1;exitX=0;exitY=1;exitDx=0;exitDy=0;" parent="1" source="7j4U_wywj907edniJbTX-35" edge="1">
          <mxGeometry width="50" height="50" relative="1" as="geometry">
            <mxPoint x="340" y="70" as="sourcePoint" />
            <mxPoint x="490" y="120" as="targetPoint" />
          </mxGeometry>
        </mxCell>
        <mxCell id="7j4U_wywj907edniJbTX-25" value="" style="ellipse;whiteSpace=wrap;html=1;" parent="1" vertex="1">
          <mxGeometry x="490" y="80" width="120" height="80" as="geometry" />
        </mxCell>
        <mxCell id="7j4U_wywj907edniJbTX-26" value="&lt;font style=&quot;font-size: 10px;&quot;&gt;Notifies that there is created complex tour request&lt;/font&gt;" style="text;html=1;align=center;verticalAlign=middle;whiteSpace=wrap;rounded=0;" parent="1" vertex="1">
          <mxGeometry x="520" y="108.5" width="60" height="25" as="geometry" />
        </mxCell>
        <mxCell id="7j4U_wywj907edniJbTX-27" value="" style="endArrow=none;html=1;rounded=0;entryX=0.833;entryY=0.963;entryDx=0;entryDy=0;entryPerimeter=0;" parent="1" edge="1">
          <mxGeometry width="50" height="50" relative="1" as="geometry">
            <mxPoint x="590.04" y="150" as="sourcePoint" />
            <mxPoint x="700" y="187.03999999999996" as="targetPoint" />
          </mxGeometry>
        </mxCell>
        <mxCell id="7j4U_wywj907edniJbTX-28" value="Guide" style="shape=umlActor;verticalLabelPosition=bottom;verticalAlign=top;html=1;outlineConnect=0;" parent="1" vertex="1">
          <mxGeometry x="10" y="220" width="30" height="60" as="geometry" />
        </mxCell>
        <mxCell id="7j4U_wywj907edniJbTX-29" value="" style="endArrow=none;html=1;rounded=0;exitX=1;exitY=0.3333333333333333;exitDx=0;exitDy=0;exitPerimeter=0;" parent="1" source="7j4U_wywj907edniJbTX-28" edge="1">
          <mxGeometry width="50" height="50" relative="1" as="geometry">
            <mxPoint x="40" y="260" as="sourcePoint" />
            <mxPoint x="100" y="270" as="targetPoint" />
          </mxGeometry>
        </mxCell>
        <mxCell id="7j4U_wywj907edniJbTX-32" value="" style="endArrow=none;html=1;rounded=0;" parent="1" edge="1">
          <mxGeometry width="50" height="50" relative="1" as="geometry">
            <mxPoint x="590" y="220" as="sourcePoint" />
            <mxPoint x="700" y="190" as="targetPoint" />
          </mxGeometry>
        </mxCell>
        <mxCell id="7j4U_wywj907edniJbTX-33" value="Notifies that complex tour request is accepted" style="ellipse;whiteSpace=wrap;html=1;" parent="1" vertex="1">
          <mxGeometry x="470" y="180" width="120" height="80" as="geometry" />
        </mxCell>
        <mxCell id="7j4U_wywj907edniJbTX-34" value="" style="endArrow=classic;html=1;rounded=0;dashed=1;dashPattern=1 2;endFill=1;" parent="1" edge="1">
          <mxGeometry width="50" height="50" relative="1" as="geometry">
            <mxPoint x="410" y="270" as="sourcePoint" />
            <mxPoint x="490" y="250" as="targetPoint" />
          </mxGeometry>
        </mxCell>
      </root>
    </mxGraphModel>
  </diagram>
</mxfile>
